<?xml version="1.0" encoding="UTF-8"?>
<svg width="128px" height="32px" viewBox="0 0 128 32" version="1.1" xmlns="http://www.w3.org/2000/svg" xmlns:xlink="http://www.w3.org/1999/xlink">
    <!-- Generator: Sketch 49.1 (51147) - http://www.bohemiancoding.com/sketch -->
    <title>apanel-logo</title>
    <desc>Created with Sketch.</desc>
    <defs></defs>
    <g id="apanel-logo" stroke="none" stroke-width="1" fill="none" fill-rule="evenodd">
        <g transform="translate(9.000000, 6.000000)">
            <g id="Group-2" fill="#202340">
                <path d="M30.4377436,7.27958974 C30.4377436,5.94051282 29.7091282,5.09374359 27.838359,5.09374359 L22.8562051,5.09374359 L23.1712821,5.38912821 L23.1712821,9.17005128 L22.8562051,9.48512821 L27.838359,9.48512821 C29.7091282,9.48512821 30.4377436,8.55958974 30.4377436,7.27958974 Z M33.8445128,7.27958974 C33.8445128,10.1940513 31.6192821,12.478359 27.838359,12.478359 L22.8562051,12.478359 L23.1712821,12.7737436 L23.1712821,18.0512821 L19.8235897,18.0512821 L19.8235897,2.10051282 L27.838359,2.10051282 C31.6192821,2.10051282 33.8445128,4.24697436 33.8445128,7.27958974 Z M43.6841026,12.990359 L43.9991795,12.6752821 C43.8810257,12.6555897 43.329641,12.6555897 43.2508718,12.6555897 C42.7191795,12.6555897 42.2071795,12.6555897 41.537641,12.6949744 C40.8877949,12.7146667 40.1985641,12.7737436 39.5881026,12.9115897 C38.3474872,13.1675897 37.8354872,13.6008205 37.8354872,14.2309744 C37.8354872,15.1368205 39.0170257,15.5306667 40.2970257,15.5306667 C41.3013334,15.5306667 43.6841026,15.4125128 43.6841026,14.1718974 L43.6841026,12.990359 Z M46.972718,10.3515897 L46.972718,18.0709744 L43.6841026,18.0709744 L43.6841026,17.3620513 L43.644718,17.3620513 C42.7191795,17.9725128 41.4391795,18.2678974 40.1788718,18.2678974 C37.7370257,18.2678974 34.5665641,17.3817436 34.5665641,14.1915897 C34.5665641,10.430359 39.7062564,10.0562051 42.8570257,10.0562051 C42.9554872,10.0562051 43.841641,10.0562051 43.9597949,10.0758974 L43.6250257,9.76082051 C43.5462564,8.71712821 42.6010257,8.1854359 41.1241026,8.1854359 C39.8834872,8.1854359 38.6034872,8.48082051 37.4810257,9.22912821 L35.452718,7.18112821 C37.1462564,5.97989744 39.0564103,5.46789744 41.1634872,5.46789744 C44.5111795,5.46789744 46.972718,6.94482051 46.972718,10.3515897 Z M61.3612308,10.3515897 L61.3415385,18.0512821 L58.0726154,18.0512821 L58.0726154,10.6666667 C58.0726154,9.17005128 57.6984616,8.28389744 55.3353847,8.28389744 C53.5236923,8.28389744 52.283077,9.17005128 52.283077,10.8045128 L52.283077,18.0512821 L48.9944616,18.0512821 L48.9944616,5.6254359 L52.283077,5.6254359 L52.283077,6.70851282 L52.3224616,6.70851282 C53.1692308,5.94051282 54.528,5.44820513 55.9064616,5.44820513 C59.195077,5.44820513 61.3612308,7.25989744 61.3612308,10.3515897 Z M65.9626667,10.4894359 L72.697436,10.4894359 L72.382359,10.174359 C71.929436,8.87466667 70.9251283,8.14605128 69.3497436,8.14605128 C67.7349744,8.14605128 66.7700513,8.91405128 66.2580513,10.174359 L65.9626667,10.4894359 Z M75.9072821,11.9466667 C75.9072821,12.2617436 75.8875898,12.734359 75.8285129,13.1282051 L65.9232821,13.1282051 L66.2186667,13.4432821 C66.6912821,14.7035897 67.833436,15.5306667 69.5269744,15.5306667 C70.7675898,15.5306667 71.7718975,15.1565128 72.7565129,14.3491282 L74.745436,16.3577436 C73.2685129,17.6377436 71.5946667,18.2482051 69.5269744,18.2482051 C64.9386667,18.2482051 62.713436,15.4715897 62.713436,11.9466667 C62.713436,8.22482051 65.1355898,5.44820513 69.3497436,5.44820513 C73.7608206,5.44820513 75.9072821,8.32328205 75.9072821,11.9466667 Z M80.6662565,1.50974359 L80.6662565,18.0512821 L77.3776411,18.0512821 L77.3776411,1.50974359 L80.6662565,1.50974359 Z" id="Panel"></path>
                <path d="M8.50707692,10.9817436 L12.0516923,10.9817436 L11.6381538,10.5682051 L10.7323077,8.77620513 L10.2990769,7.47651282 L10.2596923,7.47651282 L9.78707692,8.77620513 L8.90092308,10.5682051 L8.50707692,10.9817436 Z M12.0516923,2.10051282 L20.2043077,18.0512821 L15.4387692,18.0512821 L13.7649231,14.7626667 L14.0209231,14.3688205 L6.49846154,14.3688205 L6.75446154,14.7626667 L5.10030769,18.0512821 L0.295384615,18.0512821 L8.48738462,2.10051282 L12.0516923,2.10051282 Z" id="A"></path>
            </g>
            <g id="Group" transform="translate(83.384615, 0.615385)" fill="#4CAF50">
                <polygon id="Rectangle" points="6.56410256 0 22.6291588 0 26.2564103 4.1025641 22.6291588 8.20512821 6.56410256 8.20512821"></polygon>
                <polygon id="Rectangle" transform="translate(9.846154, 13.948718) scale(-1, 1) translate(-9.846154, -13.948718) " points="0 9.84615385 16.0650563 9.84615385 19.6923077 13.9487179 16.0650563 18.0512821 0 18.0512821"></polygon>
            </g>
        </g>
    </g>
</svg>